
<svg xmlns="http://www.w3.org/2000/svg" viewBox="0 0 200 200">
  <!-- Main building shape with solid fill -->
  <path d="M40 140 L40 70 L100 40 L160 70 L160 140 L40 140" 
        fill="#B8860B"/>
  
  <!-- Decorative crown -->
  <path d="M30 70 Q100 20 170 70" 
        fill="none" 
        stroke="#DAA520" 
        stroke-width="12"
        stroke-linecap="round"/>
  
  <!-- Windows (contrasting with building) -->
  <rect x="60" y="85" width="20" height="25" fill="white"/>
  <rect x="120" y="85" width="20" height="25" fill="white"/>
  <rect x="60" y="120" width="20" height="20" fill="white"/>
  <rect x="120" y="120" width="20" height="20" fill="white"/>
  
  <!-- Central grand door -->
  <path d="M85 140 L85 100 L115 100 L115 140" 
        fill="white"/>
  <path d="M90 140 L90 105 L110 105 L110 140" 
        fill="#DAA520"/>
  
  <!-- Luxury stars -->
  <path d="M85 45 L90 55 L80 55 Z" fill="#DAA520" stroke="#DAA520" stroke-width="2"/>
  <path d="M100 35 L105 45 L95 45 Z" fill="#DAA520" stroke="#DAA520" stroke-width="2"/>
  <path d="M115 45 L120 55 L110 55 Z" fill="#DAA520" stroke="#DAA520" stroke-width="2"/>
  
  <!-- Bold foundation -->
  <rect x="30" y="140" width="140" height="10" fill="#DAA520"/>
  
  <!-- Accent lines -->
  <line x1="40" y1="80" x2="160" y2="80" stroke="#DAA520" stroke-width="6"/>
  
  <!-- Border frame -->
  <rect x="20" y="20" width="160" height="160" 
        fill="none" 
        stroke="#B8860B" 
        stroke-width="8"
        rx="15"/>
  
  <!-- Corner embellishments -->
  <circle cx="20" cy="20" r="10" fill="#DAA520"/>
  <circle cx="180" cy="20" r="10" fill="#DAA520"/>
  <circle cx="20" cy="180" r="10" fill="#DAA520"/>
  <circle cx="180" cy="180" r="10" fill="#DAA520"/>
</svg>